<?xml version="1.0" encoding="UTF-8" standalone="no"?>
<svg
   viewBox="0 0 246.30542 300"
   width="250"
   height="306"
   class="illustration styles_illustrationTablet__1DWOa"
   version="1.1"
   id="svg53"
   sodipodi:docname="Smart phone data_Outline.svg"
   inkscape:export-filename="..\..\..\..\si.svg"
   inkscape:export-xdpi="96"
   inkscape:export-ydpi="96"
   xmlns:inkscape="http://www.inkscape.org/namespaces/inkscape"
   xmlns:sodipodi="http://sodipodi.sourceforge.net/DTD/sodipodi-0.dtd"
   xmlns="http://www.w3.org/2000/svg"
   xmlns:svg="http://www.w3.org/2000/svg">
  <defs
     id="defs57" />
  <sodipodi:namedview
     id="namedview55"
     pagecolor="#ffffff"
     bordercolor="#000000"
     borderopacity="0.25"
     inkscape:showpageshadow="2"
     inkscape:pageopacity="0.0"
     inkscape:pagecheckerboard="0"
     inkscape:deskcolor="#d1d1d1"
     showgrid="false" />
  <g
     id="_513_smart_phone_data_outline"
     data-name="#513_smart_phone_data_outline"
     transform="matrix(1.5298079,0,0,1.5714997,-187.71829,-89.548734)">
    <rect
       x="138.34"
       y="63.84"
       width="123.32"
       height="172.33"
       rx="9.9700003"
       fill="#68e1fd"
       id="rect2" />
    <path
       d="M 251.69,237.16 H 148.31 a 11,11 0 0 1 -11,-11 V 73.81 a 11,11 0 0 1 11,-11 h 103.38 a 11,11 0 0 1 11,11 v 152.38 a 11,11 0 0 1 -11,10.97 z M 148.31,64.84 a 9,9 0 0 0 -9,9 v 152.35 a 9,9 0 0 0 9,9 h 103.38 a 9,9 0 0 0 9,-9 V 73.81 a 9,9 0 0 0 -9,-9 z"
       fill="#093f68"
       id="path4" />
    <rect
       x="138.34"
       y="79.68"
       width="123.32"
       height="128.95"
       fill="#ffffff"
       id="rect6" />
    <path
       d="M 261.66,209.64 H 138.34 a 1,1 0 0 1 -1,-1 v -129 a 1,1 0 0 1 1,-1 h 123.32 a 1,1 0 0 1 1,1 v 129 a 1,1 0 0 1 -1,1 z m -122.32,-2 h 121.32 v -127 H 139.34 Z"
       fill="#093f68"
       id="path8" />
    <polygon
       points="190.63,132.93 190.63,126.36 165.78,126.36 165.78,132.93 165.78,143.16 165.78,183.99 243.9,183.99 243.9,132.93 "
       fill="#68e1fd"
       id="polygon10" />
    <path
       d="m 243.9,185 h -78.12 a 1,1 0 0 1 -1,-1 v -57.64 a 1,1 0 0 1 1,-1 h 24.85 a 1,1 0 0 1 1,1 v 5.57 h 52.27 a 1,1 0 0 1 1,1 V 184 a 1,1 0 0 1 -1,1 z m -77.12,-2 h 76.12 v -49.07 h -52.27 a 1,1 0 0 1 -1,-1 v -5.57 h -22.85 z"
       fill="#093f68"
       id="path12" />
    <rect
       x="179.89"
       y="104.87"
       width="58.189999"
       height="72.410004"
       fill="#f56132"
       id="rect14" />
    <path
       d="m 238.08,178.27 h -58.19 a 1,1 0 0 1 -1,-1 v -72.4 a 1,1 0 0 1 1,-1 h 58.19 a 1,1 0 0 1 1,1 v 72.4 a 1,1 0 0 1 -1,1 z m -57.19,-2 h 56.19 v -70.4 h -56.19 z"
       fill="#093f68"
       id="path16" />
    <rect
       x="174.17"
       y="109.37"
       width="58.189999"
       height="64.199997"
       fill="#ffbc0e"
       id="rect18" />
    <path
       d="m 232.36,174.57 h -58.19 a 1,1 0 0 1 -1,-1 v -64.2 a 1,1 0 0 1 1,-1 h 58.19 a 1,1 0 0 1 1,1 v 64.2 a 1,1 0 0 1 -1,1 z m -57.19,-2 h 56.19 v -62.2 h -56.19 z"
       fill="#093f68"
       id="path20" />
    <polygon
       points="243.9,183.99 165.78,183.99 151.18,140.34 229.3,140.34 "
       fill="#68e1fd"
       id="polygon22" />
    <path
       d="m 243.9,185 h -78.12 a 1,1 0 0 1 -0.95,-0.69 l -14.6,-43.64 a 1,1 0 0 1 0.13,-0.9 1,1 0 0 1 0.82,-0.42 h 78.12 a 1,1 0 0 1 0.95,0.69 l 14.6,43.64 A 1,1 0 0 1 243.9,185 Z m -77.4,-2 h 76 l -13.93,-41.65 h -76 z"
       fill="#093f68"
       id="path24" />
    <path
       d="m 184.21,150 h -16.89 a 1,1 0 0 1 0,-2 h 16.89 a 1,1 0 1 1 0,2 z"
       fill="#093f68"
       id="path26" />
    <path
       d="m 223,119.85 h -33.16 a 1,1 0 0 1 0,-2 H 223 a 1,1 0 0 1 0,2 z"
       fill="#093f68"
       id="path28" />
    <path
       d="m 223,127.36 h -39.44 a 1,1 0 0 1 0,-2 H 223 a 1,1 0 0 1 0,2 z"
       fill="#093f68"
       id="path30" />
    <path
       d="m 223,134.87 h -39.44 a 1,1 0 0 1 0,-2 H 223 a 1,1 0 1 1 0,2 z"
       fill="#093f68"
       id="path32" />
    <circle
       cx="237.03"
       cy="173.57001"
       r="13.8"
       fill="#ffffff"
       id="circle34" />
    <path
       d="M 237,188.36 A 14.8,14.8 0 1 1 251.79,173.57 14.81,14.81 0 0 1 237,188.36 Z m 0,-27.59 a 12.8,12.8 0 1 0 12.79,12.8 12.81,12.81 0 0 0 -12.79,-12.8 z"
       fill="#093f68"
       id="path36" />
    <path
       d="m 232.36,180.53 a 1,1 0 0 1 -1,-1 v -10.42 a 1,1 0 0 1 2,0 v 10.42 a 1,1 0 0 1 -1,1 z"
       fill="#093f68"
       id="path38" />
    <path
       d="m 235.55,172.17 a 1,1 0 0 1 -0.75,-0.33 l -2.47,-2.76 -2.68,2.79 a 1,1 0 0 1 -1.41,0 1,1 0 0 1 0,-1.42 l 3.43,-3.56 a 1,1 0 0 1 0.74,-0.31 1,1 0 0 1 0.72,0.33 l 3.19,3.57 a 1,1 0 0 1 -0.74,1.66 z"
       fill="#093f68"
       id="path40" />
    <path
       d="m 241.93,179 a 1,1 0 0 1 -1,-1 v -10.39 a 1,1 0 0 1 2,0 V 178 a 1,1 0 0 1 -1,1 z"
       fill="#093f68"
       id="path42" />
    <path
       d="m 241.93,180.53 a 1,1 0 0 1 -0.72,-0.31 l -3.42,-3.57 a 1,1 0 0 1 0,-1.41 1,1 0 0 1 1.42,0 l 2.68,2.79 2.47,-2.77 a 1.0019606,1.0019606 0 0 1 1.49,1.34 l -3.19,3.56 a 1,1 0 0 1 -0.73,0.34 z"
       fill="#093f68"
       id="path44" />
    <path
       d="m 194,71.86 a 1.05,1.05 0 0 1 -0.71,-0.29 0.93,0.93 0 0 1 -0.21,-0.33 0.94,0.94 0 0 1 0,-0.76 0.9,0.9 0 0 1 0.54,-0.54 1,1 0 0 1 0.58,-0.06 0.64,0.64 0 0 1 0.18,0.06 0.56,0.56 0 0 1 0.17,0.09 l 0.16,0.12 a 1,1 0 0 1 0.21,0.33 1,1 0 0 1 0.08,0.38 1.05,1.05 0 0 1 -0.29,0.71 1,1 0 0 1 -0.16,0.12 0.56,0.56 0 0 1 -0.17,0.09 0.64,0.64 0 0 1 -0.18,0.06 z"
       fill="#093f68"
       id="path46" />
    <path
       d="m 206,71.86 h -7.74 a 1,1 0 0 1 0,-2 H 206 a 1,1 0 0 1 0,2 z"
       fill="#093f68"
       id="path48" />
    <circle
       cx="200"
       cy="221.97"
       r="6.1999998"
       fill="#093f68"
       id="circle50" />
  </g>
</svg>
